<svg width="36" height="36" viewBox="0 0 36 36" fill="none" xmlns="http://www.w3.org/2000/svg">
<path d="M28.2652 15.4456L28.2652 15.4456C28.5606 15.7411 28.5606 16.22 28.2652 16.5154L28.2652 15.4456ZM28.2652 15.4456C27.9698 15.1503 27.4909 15.1503 27.1955 15.4456L27.1954 15.4456M28.2652 15.4456L27.1954 15.4456M27.1954 15.4456C26.1193 16.5217 24.5793 17.0107 23.0772 16.753L23.0771 16.753M27.1954 15.4456L23.0771 16.753M23.0771 16.753C22.6653 16.6828 22.2745 16.9589 22.2038 17.3707M23.0771 16.753L22.2038 17.3707M22.2038 17.3707C22.1331 17.7824 22.4096 18.1735 22.8214 18.2441M22.2038 17.3707L22.8214 18.2441M22.8214 18.2441C23.1707 18.304 23.5212 18.3333 23.87 18.3333M22.8214 18.2441L23.87 18.3333M23.87 18.3333C25.5037 18.3333 27.0923 17.6882 28.2652 16.5154L23.87 18.3333Z" fill="#0072EF" stroke="#0072EF" stroke-width="0.3"/>
<path d="M17.3125 5.56344L17.3125 5.56342C20.9311 1.94551 26.8182 1.94556 30.436 5.56337C34.0542 9.18164 34.0545 15.0689 30.4366 18.6875L30.4364 18.6876L30.4361 18.6879M17.3125 5.56344L20.3556 20.5516C23.7508 21.9686 27.7092 21.2021 30.3304 18.5815L30.436 18.688L30.4361 18.6879M17.3125 5.56344C14.672 8.20444 13.8834 12.1798 15.2717 15.6095L3.07156 27.8097C2.92057 27.9607 2.84046 28.1684 2.85091 28.3816L3.04011 32.242C3.04011 32.242 3.04011 32.242 3.04011 32.242C3.05912 32.6308 3.36998 32.9415 3.7587 32.9605L7.61851 33.1491L7.61878 33.1491C7.63104 33.1497 7.64318 33.15 7.65548 33.15C7.85557 33.15 8.04799 33.0706 8.19017 32.9286L8.1902 32.9286L9.51401 31.6053C9.65593 31.4635 9.73568 31.2711 9.73568 31.0704V28.3812H12.4249C12.6255 28.3812 12.818 28.3014 12.9598 28.1596L12.8537 28.0536L12.9598 28.1596L14.4436 26.6758L14.4436 26.6757C14.5854 26.5338 14.6651 26.3415 14.6651 26.1409V23.4516H17.3544C17.555 23.4516 17.7474 23.3719 17.8892 23.2301L20.391 20.7283M17.3125 5.56344L20.391 20.7283M30.4361 18.6879C27.7958 21.3275 23.821 22.1162 20.391 20.7283M30.4361 18.6879L20.391 20.7283M20.5456 19.1446L20.5457 19.1447C23.5049 20.5478 27.0501 19.9342 29.367 17.6177C29.367 17.6177 29.367 17.6177 29.367 17.6177M20.5456 19.1446L29.473 17.7238L29.367 17.6177M20.5456 19.1446C20.2566 19.0078 19.9129 19.0672 19.6867 19.2933L17.0411 21.9389H13.9088C13.491 21.9389 13.1524 22.2776 13.1524 22.6953V25.8276L12.1116 26.8684H8.97924C8.56146 26.8684 8.22285 27.2071 8.22285 27.6248V30.7571L7.35767 31.6219L4.51757 31.483L4.37836 28.6425L16.7068 16.3139C16.933 16.0878 16.9925 15.7438 16.8554 15.4549C15.4519 12.4959 16.0656 8.95047 18.3823 6.63319C21.4108 3.60533 26.3384 3.60518 29.3664 6.63314C32.3945 9.66134 32.3948 14.5893 29.367 17.6177M20.5456 19.1446L29.367 17.6177" fill="#0072EF" stroke="#0072EF" stroke-width="0.3"/>
<path d="M24.1361 11.8653C24.7082 12.4371 25.6403 12.4373 26.2129 11.8652C26.2129 11.8652 26.2129 11.8651 26.2129 11.8651M24.1361 11.8653L24.0299 9.68221C24.3357 9.37647 24.7421 9.20807 25.1745 9.20807C25.6068 9.20807 26.0132 9.37647 26.319 9.68221C26.6247 9.98789 26.7931 10.3944 26.7931 10.8267C26.7931 11.2591 26.6247 11.6655 26.3189 11.9712L26.2129 11.8651M24.1361 11.8653C23.5638 11.2926 23.5639 10.3606 24.136 9.78826M24.1361 11.8653L24.136 9.78826M26.2129 11.8651C26.4905 11.5875 26.6431 11.2193 26.6431 10.8267C26.6431 10.4341 26.4905 10.0658 26.2129 9.78829C25.9352 9.51065 25.567 9.35807 25.1745 9.35807C24.7819 9.35807 24.4136 9.51065 24.136 9.78826M26.2129 11.8651L24.136 9.78826M23.066 8.71856L23.066 8.7186C21.9042 9.88109 21.9043 11.7721 23.0663 12.9349L23.0663 12.935C23.6477 13.516 24.4114 13.8063 25.1744 13.8063C25.9328 13.8063 26.6919 13.5195 27.2719 12.9455L27.2723 12.9453L27.2826 12.9349C27.8456 12.372 28.156 11.6227 28.156 10.8266C28.156 10.0305 27.8456 9.28141 27.2826 8.71845C26.7197 8.15548 25.9705 7.84512 25.1744 7.84512C24.3783 7.84512 23.6291 8.15548 23.066 8.71856Z" fill="#0072EF" stroke="#0072EF" stroke-width="0.3"/>
<path d="M28.8504 13.8726C28.6127 13.8726 28.4244 13.9666 28.2975 14.1144C28.1733 14.259 28.1147 14.4467 28.1146 14.6289C28.1146 14.8111 28.1729 14.9989 28.2971 15.1436C28.424 15.2914 28.6125 15.3854 28.8504 15.3854C29.0881 15.3854 29.2765 15.2914 29.4034 15.1436C29.5276 14.999 29.5861 14.8113 29.5862 14.6291C29.5863 14.4469 29.528 14.2591 29.4038 14.1144C29.2769 13.9666 29.0884 13.8726 28.8504 13.8726Z" fill="#0072EF" stroke="#0072EF" stroke-width="0.3"/>
</svg>
