<svg width="36" height="36" viewBox="0 0 36 36" fill="none" xmlns="http://www.w3.org/2000/svg">
<path d="M8.23806 7.64589L8.23812 7.64583L6.17564 5.53428C6.1756 5.53424 6.17556 5.5342 6.17552 5.53416L6.17547 5.53411L6.28278 5.4293L8.23806 7.64589ZM8.23806 7.64589L8.24173 7.6494M8.23806 7.64589L8.24173 7.6494M8.24173 7.6494C8.37246 7.77448 8.53929 7.84375 8.71631 7.84375C8.88898 7.84375 9.05915 7.78397 9.19434 7.646L11.27 5.52764C11.5289 5.26346 11.5289 4.83147 11.27 4.56728C11.0095 4.3014 10.581 4.3014 10.3205 4.56728L9.39336 5.51345M8.24173 7.6494L9.39336 5.51345M12.7583 20.2808L12.7569 20.2793L11.4881 18.8914L11.488 18.8914C10.8389 18.1802 10.0288 17.6266 9.32156 17.2869C8.96789 17.117 8.64446 17.0027 8.38374 16.948C8.25331 16.9206 8.14235 16.9089 8.0533 16.911C7.96245 16.9132 7.90554 16.9296 7.87389 16.9479L12.7583 20.2808ZM12.7583 20.2808C12.9484 20.4833 13.2343 20.5536 13.4954 20.4504C13.7551 20.3478 13.9221 20.0995 13.9221 19.8195V4.66563C13.9221 3.89472 14.5353 3.275 15.2686 3.275C16.0158 3.275 16.6282 3.89557 16.6282 4.66563V19.7266C16.6282 20.0987 16.9268 20.4078 17.2988 20.4078C17.6708 20.4078 17.9693 20.0987 17.9693 19.7266V12.2227C17.9693 11.4526 18.5817 10.832 19.3289 10.832C20.076 10.832 20.6885 11.4526 20.6885 12.2227V19.7266C20.6885 20.0987 20.987 20.4078 21.359 20.4078C21.731 20.4078 22.0295 20.0987 22.0295 19.7266V15.6293C22.0295 14.8592 22.6419 14.2387 23.3891 14.2387C24.1363 14.2387 24.7487 14.8592 24.7487 15.6293V19.7266C24.7487 20.0987 25.0472 20.4078 25.4192 20.4078C25.7912 20.4078 26.0898 20.0987 26.0898 19.7266V18.1727C26.0898 17.4026 26.7022 16.782 27.4493 16.782C28.1965 16.782 28.8089 17.4026 28.8089 18.1727C28.8089 21.6273 28.1487 24.5084 26.8702 26.7575C26.5517 27.3081 26.2852 27.7658 26.0708 28.1304M12.7583 20.2808L16.0361 30.0991M10.8269 22.5723L10.8272 22.573C11.0566 23.1482 11.2269 23.6496 11.3706 24.0964M10.8269 22.5723L11.3707 24.0966C11.3707 24.0966 11.3707 24.0965 11.3706 24.0964M10.8269 22.5723C10.4391 21.613 10.075 21.012 9.68588 20.5726C9.29748 20.134 8.89012 19.8637 8.4364 19.5627L8.43631 19.5627C8.43607 19.5625 8.43582 19.5624 8.43558 19.5622C8.39315 19.5333 8.35066 19.5046 8.3079 19.4756C8.11333 19.3439 7.9131 19.2083 7.68646 19.0416C7.32978 18.7744 7.17707 18.4609 7.19391 18.1C7.20546 17.8524 7.29703 17.6085 7.42852 17.4014M10.8269 22.5723L7.42852 17.4014M11.3706 24.0964C11.5863 24.7601 11.7541 25.2717 12.0371 25.7514C12.3179 26.2275 12.7166 26.6786 13.4013 27.2044M11.3706 24.0964L13.4013 27.2044M13.4013 27.2044C15.5092 28.8194 15.9768 29.9435 16.0335 30.0923M13.4013 27.2044L16.0335 30.0923M16.0361 30.0991L16.0359 30.0991C16.0586 30.1686 16.0758 30.2447 16.0758 30.3316V33.7875H25.001C24.9934 33.0925 24.9752 32.5512 24.957 32.1311L24.957 32.1298C24.9247 31.1893 24.9127 30.6649 25.06 30.1354C25.2063 29.6092 25.5082 29.0841 26.0708 28.1304M16.0361 30.0991L16.0335 30.0923M16.0361 30.0991L16.0335 30.0923M26.0708 28.1304L26.2 28.2066M26.0708 28.1304C26.0708 28.1305 26.0708 28.1306 26.0707 28.1306L26.2 28.2066M26.2 28.2066C25.0679 30.1258 25.0418 30.232 25.1069 32.1246L26.2 28.2066ZM9.39336 5.51345V1.53125C9.39336 1.15911 9.09483 0.85 8.72282 0.85C8.35081 0.85 8.05228 1.15911 8.05228 1.53125V5.52009L9.39336 5.51345ZM7.42852 17.4014C7.56059 17.1935 7.72633 17.0331 7.87386 16.9479L7.42852 17.4014ZM7.12518 11.3979L8.05228 10.4518V14.434C8.05228 14.8061 8.35081 15.1152 8.72282 15.1152C9.09483 15.1152 9.39336 14.8061 9.39336 14.434V10.4518L10.3205 11.3979C10.4556 11.5359 10.6258 11.5957 10.7985 11.5957C10.9755 11.5957 11.1423 11.5264 11.2731 11.4014L11.2731 11.4014L11.2765 11.3979C11.5354 11.1338 11.5354 10.7018 11.2765 10.4376L11.2763 10.4374L9.19434 8.31924C8.93381 8.05335 8.50532 8.05335 8.24479 8.31924L6.17564 10.431C5.91706 10.6949 5.91678 11.1262 6.1748 11.3905C6.43543 11.6641 6.86462 11.6639 7.12518 11.3979ZM28.035 27.4377L28.0351 27.4377C29.4439 24.972 30.15 21.8565 30.15 18.1727C30.15 16.6586 28.9406 15.4191 27.4421 15.4328C26.9459 15.4329 26.4823 15.5681 26.0833 15.8061V15.6359C26.0833 14.1221 24.8808 12.8828 23.3891 12.8828C22.8926 12.8828 22.4288 13.018 22.0295 13.2561V12.2227C22.0295 10.7083 20.82 9.46953 19.3289 9.46953C18.8324 9.46953 18.3685 9.60469 17.9693 9.84286V4.66563C17.9693 3.15769 16.7596 1.91914 15.2686 1.91914C13.7842 1.91914 12.5745 3.15105 12.5745 4.66563V18.0852L12.471 17.9721C12.471 17.9721 12.471 17.9721 12.471 17.9721C11.8204 17.2572 10.8483 16.5201 9.87779 16.0528C9.39225 15.819 8.90103 15.6497 8.44601 15.5871C7.99191 15.5245 7.56074 15.5666 7.20934 15.7719C6.4545 16.2102 5.90135 17.1402 5.8532 18.0318L5.85317 18.0324C5.81146 18.8696 6.18218 19.6204 6.8966 20.1462L6.8969 20.1464C7.19892 20.3675 7.46797 20.5484 7.70355 20.702C8.13837 20.9889 8.44452 21.1925 8.72491 21.5164C9.00528 21.8403 9.26625 22.2926 9.58563 23.0828C9.78704 23.5873 9.93067 24.021 10.0726 24.4495C10.0806 24.4736 10.0885 24.4977 10.0965 24.5218L10.1043 24.5453C10.325 25.2112 10.5289 25.8267 10.8838 26.4315C11.2446 27.0463 11.7578 27.6448 12.5942 28.2858C14.0561 29.4064 14.5877 30.2245 14.7347 30.4892V34.4688C14.7347 34.8409 15.0333 35.15 15.4053 35.15H25.6795C26.0515 35.15 26.35 34.8409 26.35 34.4688C26.35 33.4103 26.3239 32.6379 26.3044 32.0795L26.3044 32.0794C26.2748 31.2578 26.2627 30.8778 26.3728 30.4887C26.4842 30.0951 26.7217 29.6882 27.2273 28.8271L27.2279 28.8262C27.3094 28.6849 27.4003 28.5297 27.4994 28.3606C27.6586 28.0888 27.8388 27.781 28.035 27.4377Z" fill="#0072EF" stroke="#0072EF" stroke-width="0.3"/>
</svg>
